# xmcd
#
# Track frame offsets: 
#        150
#        13075
#        29817
#        51817
#        81790
#        100567
#        118155
#        148655
#        172722
#        196802
#        213277
#        228430
#        250082
#        262697
#
# Disc length: 3829 seconds
#
# Revision: 3
# Processed by: cddbd v1.5.2PL0 Copyright (c) Steve Scherf et al.
# Submitted via: ExactAudioCopyFreeDBPlugin 1.0
#
DISCID=b10ef30e
DTITLE=Omar and The Howlers - Live at the Paradiso
DYEAR=1992
DGENRE=Bluesrock
TTITLE0=Shake for Me
TTITLE1=Don't You Know
TTITLE2=Mississippi Hoodoo Man
TTITLE3=Lee Anne
TTITLE4=Leave Here Running
TTITLE5=Border Girl
TTITLE6=Born on the Bayou
TTITLE7=Magic Man
TTITLE8=Sleeping in the Ground
TTITLE9=Big Round World
TTITLE10=Don't Rock Me the Wrong Way
TTITLE11=Hard Times in the Land of Plenty
TTITLE12=Big Chief Pontiac
TTITLE13=Rock and Roll Ball
EXTD=Label: Provogue Music Productions\nPRD 70352
EXTT0=
EXTT1=
EXTT2=
EXTT3=
EXTT4=
EXTT5=
EXTT6=
EXTT7=
EXTT8=
EXTT9=
EXTT10=
EXTT11=
EXTT12=
EXTT13=
PLAYORDER=
